<?xml version="1.0" encoding="us-ascii" standalone="no"?><svg xmlns="http://www.w3.org/2000/svg" xmlns:xlink="http://www.w3.org/1999/xlink" contentStyleType="text/css" height="1285.81px" preserveAspectRatio="none" style="width:1464px;height:1285px;background:#FFFFFF;" version="1.1" viewBox="0 0 1464 1285" width="1464.02px" zoomAndPan="magnify"><defs/><g><!--cluster library--><g id="cluster_library"><path d="M196.315,710.7197 L228.265,710.7197 A2.6625,2.6625 0 0 1 230.04,712.4947 L235.01,728.2007 L1457.275,728.2007 A1.775,1.775 0 0 1 1459.05,729.9757 L1459.05,1279.0747 A1.775,1.775 0 0 1 1457.275,1280.8497 L196.315,1280.8497 A1.775,1.775 0 0 1 194.54,1279.0747 L194.54,712.4947 A1.775,1.775 0 0 1 196.315,710.7197 " fill="none" style="stroke:#000000;stroke-width:1.065;"/><line style="stroke:#000000;stroke-width:1.065;" x1="194.54" x2="235.01" y1="728.2007" y2="728.2007"/><text fill="#000000" font-family="sans-serif" font-size="9.94" font-weight="bold" lengthAdjust="spacing" textLength="31.24" x="197.38" y="722.866">library</text></g><!--cluster driver--><g id="cluster_driver"><path d="M6.035,4.2697 L37.275,4.2697 A2.6625,2.6625 0 0 1 39.05,6.0447 L44.02,21.7507 L394.405,21.7507 A1.775,1.775 0 0 1 396.18,23.5257 L396.18,246.0247 A1.775,1.775 0 0 1 394.405,247.7997 L6.035,247.7997 A1.775,1.775 0 0 1 4.26,246.0247 L4.26,6.0447 A1.775,1.775 0 0 1 6.035,4.2697 " fill="none" style="stroke:#000000;stroke-width:1.065;"/><line style="stroke:#000000;stroke-width:1.065;" x1="4.26" x2="44.02" y1="21.7507" y2="21.7507"/><text fill="#000000" font-family="sans-serif" font-size="9.94" font-weight="bold" lengthAdjust="spacing" textLength="30.53" x="7.1" y="16.416">driver</text></g><!--cluster client--><g id="cluster_client"><path d="M192.055,328.0297 L220.455,328.0297 A2.6625,2.6625 0 0 1 222.23,329.8047 L227.2,345.5107 L481.025,345.5107 A1.775,1.775 0 0 1 482.8,347.2857 L482.8,623.0347 A1.775,1.775 0 0 1 481.025,624.8097 L192.055,624.8097 A1.775,1.775 0 0 1 190.28,623.0347 L190.28,329.8047 A1.775,1.775 0 0 1 192.055,328.0297 " fill="none" style="stroke:#000000;stroke-width:1.065;"/><line style="stroke:#000000;stroke-width:1.065;" x1="190.28" x2="227.2" y1="345.5107" y2="345.5107"/><text fill="#000000" font-family="sans-serif" font-size="9.94" font-weight="bold" lengthAdjust="spacing" textLength="27.69" x="193.12" y="340.176">client</text></g><!--class Library--><g id="elem_Library"><rect codeLine="9" fill="#F1F1F1" height="285.2786" id="Library" rx="1.775" ry="1.775" style="stroke:#181818;stroke-width:0.355;" width="316.66" x="673.08" y="742.6697"/><ellipse cx="812.7725" cy="754.0297" fill="#ADD1B2" rx="7.81" ry="7.81" style="stroke:#181818;stroke-width:0.71;"/><path d="M814.7361,751.101 Q814.847,750.9456 814.9802,750.868 Q815.1133,750.7903 815.2686,750.7903 Q815.5348,750.7903 815.7013,750.9789 Q815.8677,751.1564 815.8677,751.5891 L815.8677,752.6208 Q815.8677,753.0535 815.7013,753.2421 Q815.5348,753.4306 815.2686,753.4306 Q815.0245,753.4306 814.8803,753.2864 Q814.7361,753.1533 814.6584,752.7872 Q814.6252,752.5321 814.492,752.3989 Q814.2591,752.1327 813.8264,751.9774 Q813.3938,751.8221 812.95,751.8221 Q812.4064,751.8221 811.9516,752.055 Q811.5078,752.288 811.1528,752.8205 Q810.8089,753.353 810.8089,754.0852 L810.8089,754.8617 Q810.8089,755.7381 811.4413,756.3261 Q812.0736,756.903 813.2052,756.903 Q813.8708,756.903 814.3367,756.7255 Q814.6141,756.6146 814.9136,756.3039 Q815.1022,756.1153 815.202,756.0599 Q815.313,756.0044 815.4572,756.0044 Q815.6902,756.0044 815.8677,756.193 Q816.0563,756.3705 816.0563,756.6146 Q816.0563,756.8586 815.8122,757.1471 Q815.4572,757.5575 814.8914,757.7905 Q814.1259,758.1122 813.2052,758.1122 Q812.1291,758.1122 811.2748,757.6685 Q810.5759,757.3135 810.0878,756.5591 Q809.5997,755.7936 809.5997,754.8839 L809.5997,754.063 Q809.5997,753.12 810.0323,752.3102 Q810.4761,751.4892 811.2527,751.0566 Q812.0292,750.6128 812.9056,750.6128 Q813.427,750.6128 813.8819,750.7349 Q814.3478,750.8458 814.7361,751.101 Z " fill="#000000"/><text fill="#000000" font-family="sans-serif" font-size="9.94" lengthAdjust="spacing" textLength="31.24" x="827.3275" y="758.1455">Library</text><line style="stroke:#181818;stroke-width:0.355;" x1="673.79" x2="989.03" y1="765.3897" y2="765.3897"/><text fill="#000000" font-family="sans-serif" font-size="9.94" lengthAdjust="spacing" text-decoration="underline" textLength="107.92" x="677.34" y="778.956">-identificationNumber:int</text><text fill="#000000" font-family="sans-serif" font-size="9.94" lengthAdjust="spacing" textLength="98.69" x="677.34" y="792.177">~yearOfPublication:int</text><text fill="#000000" font-family="sans-serif" font-size="9.94" lengthAdjust="spacing" textLength="59.64" x="677.34" y="805.3979">~name:String</text><text fill="#000000" font-family="sans-serif" font-size="9.94" lengthAdjust="spacing" textLength="68.87" x="677.34" y="818.6189">~authors:String</text><text fill="#000000" font-family="sans-serif" font-size="9.94" lengthAdjust="spacing" textLength="63.9" x="677.34" y="831.8399">+clone:Library</text><line style="stroke:#181818;stroke-width:0.355;" x1="673.79" x2="989.03" y1="837.1746" y2="837.1746"/><text fill="#000000" font-family="sans-serif" font-size="9.94" lengthAdjust="spacing" textLength="86.62" x="677.34" y="850.7409">+&#171;create&#187; Library()</text><text fill="#000000" font-family="sans-serif" font-size="9.94" lengthAdjust="spacing" textLength="147.68" x="677.34" y="863.9618">+&#171;create&#187; Library(Library object)</text><text fill="#000000" font-family="sans-serif" font-size="9.94" lengthAdjust="spacing" textLength="308.14" x="677.34" y="877.1828">+&#171;create&#187; Library(String name, int yearOfPublication, String authors)</text><text fill="#000000" font-family="sans-serif" font-size="9.94" lengthAdjust="spacing" textLength="131.35" x="677.34" y="890.4038">+getIdentificationNumber():int</text><text fill="#000000" font-family="sans-serif" font-size="9.94" lengthAdjust="spacing" textLength="121.41" x="677.34" y="903.6248">+getYearOfPublication():int</text><text fill="#000000" font-family="sans-serif" font-size="9.94" lengthAdjust="spacing" textLength="81.65" x="677.34" y="916.8457">+getName():String</text><text fill="#000000" font-family="sans-serif" font-size="9.94" lengthAdjust="spacing" textLength="90.88" x="677.34" y="930.0667">+getAuthors():String</text><text fill="#000000" font-family="sans-serif" font-size="9.94" lengthAdjust="spacing" textLength="221.52" x="677.34" y="943.2877">+setYearOfPublication(int yearOfPublication):void</text><text fill="#000000" font-family="sans-serif" font-size="9.94" lengthAdjust="spacing" textLength="127.09" x="677.34" y="956.5087">+setName(String name):void</text><text fill="#000000" font-family="sans-serif" font-size="9.94" lengthAdjust="spacing" textLength="145.55" x="677.34" y="969.7296">+setAuthors(String authors):void</text><text fill="#000000" font-family="sans-serif" font-size="9.94" lengthAdjust="spacing" textLength="242.82" x="677.34" y="982.9506">+setIdentificationNumber(int identificationNumber):void</text><text fill="#000000" font-family="sans-serif" font-size="9.94" lengthAdjust="spacing" textLength="76.68" x="677.34" y="996.1716">+toString():String</text><text fill="#000000" font-family="sans-serif" font-size="9.94" lengthAdjust="spacing" textLength="119.28" x="677.34" y="1009.3926">+equals(Object o):boolean</text><text fill="#000000" font-family="sans-serif" font-size="9.94" lengthAdjust="spacing" textLength="147.68" x="677.34" y="1022.6136">+uniqueIdentificationNumber():int</text></g><!--class Journal--><g id="elem_Journal"><rect codeLine="32" fill="#F1F1F1" height="192.7317" id="Journal" rx="1.775" ry="1.775" style="stroke:#181818;stroke-width:0.355;" width="403.99" x="217.615" y="1071.3997"/><ellipse cx="400.2625" cy="1082.7597" fill="#ADD1B2" rx="7.81" ry="7.81" style="stroke:#181818;stroke-width:0.71;"/><path d="M402.2261,1079.831 Q402.337,1079.6756 402.4702,1079.598 Q402.6033,1079.5203 402.7586,1079.5203 Q403.0248,1079.5203 403.1912,1079.7089 Q403.3577,1079.8864 403.3577,1080.3191 L403.3577,1081.3508 Q403.3577,1081.7835 403.1912,1081.9721 Q403.0248,1082.1606 402.7586,1082.1606 Q402.5145,1082.1606 402.3703,1082.0164 Q402.2261,1081.8833 402.1484,1081.5172 Q402.1152,1081.2621 401.982,1081.1289 Q401.7491,1080.8627 401.3164,1080.7074 Q400.8837,1080.5521 400.44,1080.5521 Q399.8964,1080.5521 399.4416,1080.785 Q398.9978,1081.018 398.6428,1081.5505 Q398.2989,1082.083 398.2989,1082.8152 L398.2989,1083.5917 Q398.2989,1084.4681 398.9313,1085.0561 Q399.5636,1085.633 400.6952,1085.633 Q401.3608,1085.633 401.8267,1085.4555 Q402.1041,1085.3446 402.4036,1085.0339 Q402.5922,1084.8453 402.692,1084.7899 Q402.803,1084.7344 402.9472,1084.7344 Q403.1802,1084.7344 403.3577,1084.923 Q403.5463,1085.1005 403.5463,1085.3446 Q403.5463,1085.5886 403.3022,1085.8771 Q402.9472,1086.2875 402.3814,1086.5205 Q401.6159,1086.8422 400.6952,1086.8422 Q399.6191,1086.8422 398.7648,1086.3985 Q398.0659,1086.0435 397.5778,1085.2891 Q397.0897,1084.5236 397.0897,1083.6139 L397.0897,1082.793 Q397.0897,1081.85 397.5223,1081.0402 Q397.9661,1080.2192 398.7427,1079.7866 Q399.5192,1079.3428 400.3956,1079.3428 Q400.917,1079.3428 401.3719,1079.4649 Q401.8378,1079.5758 402.2261,1079.831 Z " fill="#000000"/><text fill="#000000" font-family="sans-serif" font-size="9.94" lengthAdjust="spacing" textLength="32.66" x="414.8175" y="1086.8755">Journal</text><line style="stroke:#181818;stroke-width:0.355;" x1="218.325" x2="620.895" y1="1094.1197" y2="1094.1197"/><text fill="#000000" font-family="sans-serif" font-size="9.94" lengthAdjust="spacing" textLength="83.78" x="221.875" y="1107.686">-volumeNumber:int</text><text fill="#000000" font-family="sans-serif" font-size="9.94" lengthAdjust="spacing" textLength="72.42" x="221.875" y="1120.907">-journalID:String</text><text fill="#000000" font-family="sans-serif" font-size="9.94" lengthAdjust="spacing" textLength="65.32" x="221.875" y="1134.1279">+clone:Journal</text><line style="stroke:#181818;stroke-width:0.355;" x1="218.325" x2="620.895" y1="1139.4626" y2="1139.4626"/><text fill="#000000" font-family="sans-serif" font-size="9.94" lengthAdjust="spacing" textLength="88.04" x="221.875" y="1153.0289">+&#171;create&#187; Journal()</text><text fill="#000000" font-family="sans-serif" font-size="9.94" lengthAdjust="spacing" textLength="150.52" x="221.875" y="1166.2499">+&#171;create&#187; Journal(Journal object)</text><text fill="#000000" font-family="sans-serif" font-size="9.94" lengthAdjust="spacing" textLength="395.47" x="221.875" y="1179.4709">+&#171;create&#187; Journal(String name, int yearOfPublication, String authors, int volumeNumber)</text><text fill="#000000" font-family="sans-serif" font-size="9.94" lengthAdjust="spacing" textLength="108.63" x="221.875" y="1192.6918">+getVolumeNumber():int</text><text fill="#000000" font-family="sans-serif" font-size="9.94" lengthAdjust="spacing" textLength="97.98" x="221.875" y="1205.9128">+getJournalID():String</text><text fill="#000000" font-family="sans-serif" font-size="9.94" lengthAdjust="spacing" textLength="195.96" x="221.875" y="1219.1338">+setVolumeNumber(int volumeNumber):void</text><text fill="#000000" font-family="sans-serif" font-size="9.94" lengthAdjust="spacing" textLength="158.33" x="221.875" y="1232.3548">+setJournalID(String journalID):void</text><text fill="#000000" font-family="sans-serif" font-size="9.94" lengthAdjust="spacing" textLength="76.68" x="221.875" y="1245.5757">+toString():String</text><text fill="#000000" font-family="sans-serif" font-size="9.94" lengthAdjust="spacing" textLength="119.28" x="221.875" y="1258.7967">+equals(Object o):boolean</text></g><!--class Media--><g id="elem_Media"><rect codeLine="60" fill="#F1F1F1" height="192.7317" id="Media" rx="1.775" ry="1.775" style="stroke:#181818;stroke-width:0.355;" width="369.91" x="646.455" y="1071.3997"/><ellipse cx="814.9025" cy="1082.7597" fill="#ADD1B2" rx="7.81" ry="7.81" style="stroke:#181818;stroke-width:0.71;"/><path d="M816.8661,1079.831 Q816.977,1079.6756 817.1102,1079.598 Q817.2433,1079.5203 817.3986,1079.5203 Q817.6648,1079.5203 817.8313,1079.7089 Q817.9977,1079.8864 817.9977,1080.3191 L817.9977,1081.3508 Q817.9977,1081.7835 817.8313,1081.9721 Q817.6648,1082.1606 817.3986,1082.1606 Q817.1545,1082.1606 817.0103,1082.0164 Q816.8661,1081.8833 816.7884,1081.5172 Q816.7552,1081.2621 816.622,1081.1289 Q816.3891,1080.8627 815.9564,1080.7074 Q815.5238,1080.5521 815.08,1080.5521 Q814.5364,1080.5521 814.0816,1080.785 Q813.6378,1081.018 813.2828,1081.5505 Q812.9389,1082.083 812.9389,1082.8152 L812.9389,1083.5917 Q812.9389,1084.4681 813.5713,1085.0561 Q814.2036,1085.633 815.3352,1085.633 Q816.0008,1085.633 816.4667,1085.4555 Q816.7441,1085.3446 817.0436,1085.0339 Q817.2322,1084.8453 817.332,1084.7899 Q817.443,1084.7344 817.5872,1084.7344 Q817.8202,1084.7344 817.9977,1084.923 Q818.1863,1085.1005 818.1863,1085.3446 Q818.1863,1085.5886 817.9422,1085.8771 Q817.5872,1086.2875 817.0214,1086.5205 Q816.2559,1086.8422 815.3352,1086.8422 Q814.2591,1086.8422 813.4048,1086.3985 Q812.7059,1086.0435 812.2178,1085.2891 Q811.7297,1084.5236 811.7297,1083.6139 L811.7297,1082.793 Q811.7297,1081.85 812.1623,1081.0402 Q812.6061,1080.2192 813.3827,1079.7866 Q814.1592,1079.3428 815.0356,1079.3428 Q815.557,1079.3428 816.0119,1079.4649 Q816.4778,1079.5758 816.8661,1079.831 Z " fill="#000000"/><text fill="#000000" font-family="sans-serif" font-size="9.94" lengthAdjust="spacing" textLength="26.98" x="829.4575" y="1086.8755">Media</text><line style="stroke:#181818;stroke-width:0.355;" x1="647.165" x2="1015.655" y1="1094.1197" y2="1094.1197"/><text fill="#000000" font-family="sans-serif" font-size="9.94" lengthAdjust="spacing" textLength="65.32" x="650.715" y="1107.686">+clone : Media</text><text fill="#000000" font-family="sans-serif" font-size="9.94" lengthAdjust="spacing" textLength="55.38" x="650.715" y="1120.907">-Type:String</text><text fill="#000000" font-family="sans-serif" font-size="9.94" lengthAdjust="spacing" textLength="68.87" x="650.715" y="1134.1279">-mediaID:String</text><line style="stroke:#181818;stroke-width:0.355;" x1="647.165" x2="1015.655" y1="1139.4626" y2="1139.4626"/><text fill="#000000" font-family="sans-serif" font-size="9.94" lengthAdjust="spacing" textLength="82.36" x="650.715" y="1153.0289">+&#171;create&#187; Media()</text><text fill="#000000" font-family="sans-serif" font-size="9.94" lengthAdjust="spacing" textLength="139.16" x="650.715" y="1166.2499">+&#171;create&#187; Media(Media object)</text><text fill="#000000" font-family="sans-serif" font-size="9.94" lengthAdjust="spacing" textLength="361.39" x="650.715" y="1179.4709">+&#171;create&#187; Media(String name, int yearOfPublication, String authors, String Type)</text><text fill="#000000" font-family="sans-serif" font-size="9.94" lengthAdjust="spacing" textLength="78.81" x="650.715" y="1192.6918">+getType():String</text><text fill="#000000" font-family="sans-serif" font-size="9.94" lengthAdjust="spacing" textLength="92.3" x="650.715" y="1205.9128">+getMediaID():String</text><text fill="#000000" font-family="sans-serif" font-size="9.94" lengthAdjust="spacing" textLength="122.12" x="650.715" y="1219.1338">+setType(String Type):void</text><text fill="#000000" font-family="sans-serif" font-size="9.94" lengthAdjust="spacing" textLength="149.1" x="650.715" y="1232.3548">+setMediaID(String mediaID):void</text><text fill="#000000" font-family="sans-serif" font-size="9.94" lengthAdjust="spacing" textLength="76.68" x="650.715" y="1245.5757">+toString():String</text><text fill="#000000" font-family="sans-serif" font-size="9.94" lengthAdjust="spacing" textLength="119.28" x="650.715" y="1258.7967">+equals(Object o):boolean</text></g><!--class Book--><g id="elem_Book"><rect codeLine="46" fill="#F1F1F1" height="192.7317" id="Book" rx="1.775" ry="1.775" style="stroke:#181818;stroke-width:0.355;" width="400.44" x="1041.57" y="1071.3997"/><ellipse cx="1227.4125" cy="1082.7597" fill="#ADD1B2" rx="7.81" ry="7.81" style="stroke:#181818;stroke-width:0.71;"/><path d="M1229.3761,1079.831 Q1229.487,1079.6756 1229.6202,1079.598 Q1229.7533,1079.5203 1229.9086,1079.5203 Q1230.1748,1079.5203 1230.3413,1079.7089 Q1230.5077,1079.8864 1230.5077,1080.3191 L1230.5077,1081.3508 Q1230.5077,1081.7835 1230.3413,1081.9721 Q1230.1748,1082.1606 1229.9086,1082.1606 Q1229.6645,1082.1606 1229.5203,1082.0164 Q1229.3761,1081.8833 1229.2984,1081.5172 Q1229.2652,1081.2621 1229.132,1081.1289 Q1228.8991,1080.8627 1228.4664,1080.7074 Q1228.0337,1080.5521 1227.59,1080.5521 Q1227.0464,1080.5521 1226.5916,1080.785 Q1226.1478,1081.018 1225.7928,1081.5505 Q1225.4489,1082.083 1225.4489,1082.8152 L1225.4489,1083.5917 Q1225.4489,1084.4681 1226.0813,1085.0561 Q1226.7136,1085.633 1227.8452,1085.633 Q1228.5108,1085.633 1228.9767,1085.4555 Q1229.2541,1085.3446 1229.5536,1085.0339 Q1229.7422,1084.8453 1229.842,1084.7899 Q1229.953,1084.7344 1230.0972,1084.7344 Q1230.3302,1084.7344 1230.5077,1084.923 Q1230.6963,1085.1005 1230.6963,1085.3446 Q1230.6963,1085.5886 1230.4522,1085.8771 Q1230.0972,1086.2875 1229.5314,1086.5205 Q1228.7659,1086.8422 1227.8452,1086.8422 Q1226.7691,1086.8422 1225.9148,1086.3985 Q1225.2159,1086.0435 1224.7278,1085.2891 Q1224.2397,1084.5236 1224.2397,1083.6139 L1224.2397,1082.793 Q1224.2397,1081.85 1224.6723,1081.0402 Q1225.1161,1080.2192 1225.8927,1079.7866 Q1226.6692,1079.3428 1227.5456,1079.3428 Q1228.067,1079.3428 1228.5219,1079.4649 Q1228.9878,1079.5758 1229.3761,1079.831 Z " fill="#000000"/><text fill="#000000" font-family="sans-serif" font-size="9.94" lengthAdjust="spacing" textLength="22.72" x="1241.9675" y="1086.8755">Book</text><line style="stroke:#181818;stroke-width:0.355;" x1="1042.28" x2="1441.3" y1="1094.1197" y2="1094.1197"/><text fill="#000000" font-family="sans-serif" font-size="9.94" lengthAdjust="spacing" textLength="61.06" x="1045.83" y="1107.686">+clone : Book</text><text fill="#000000" font-family="sans-serif" font-size="9.94" lengthAdjust="spacing" textLength="90.17" x="1045.83" y="1120.907">-numberOfPages:int</text><text fill="#000000" font-family="sans-serif" font-size="9.94" lengthAdjust="spacing" textLength="63.9" x="1045.83" y="1134.1279">-bookID:String</text><line style="stroke:#181818;stroke-width:0.355;" x1="1042.28" x2="1441.3" y1="1139.4626" y2="1139.4626"/><text fill="#000000" font-family="sans-serif" font-size="9.94" lengthAdjust="spacing" textLength="78.1" x="1045.83" y="1153.0289">+&#171;create&#187; Book()</text><text fill="#000000" font-family="sans-serif" font-size="9.94" lengthAdjust="spacing" textLength="130.64" x="1045.83" y="1166.2499">+&#171;create&#187; Book(Book object)</text><text fill="#000000" font-family="sans-serif" font-size="9.94" lengthAdjust="spacing" textLength="391.92" x="1045.83" y="1179.4709">+&#171;create&#187; Book(String name, int yearOfPublication, String authors, int numberOfPages)</text><text fill="#000000" font-family="sans-serif" font-size="9.94" lengthAdjust="spacing" textLength="114.31" x="1045.83" y="1192.6918">+getNumberOfPages():int</text><text fill="#000000" font-family="sans-serif" font-size="9.94" lengthAdjust="spacing" textLength="88.04" x="1045.83" y="1205.9128">+getBookID():String</text><text fill="#000000" font-family="sans-serif" font-size="9.94" lengthAdjust="spacing" textLength="208.03" x="1045.83" y="1219.1338">+setNumberOfPages(int numberOfPages):void</text><text fill="#000000" font-family="sans-serif" font-size="9.94" lengthAdjust="spacing" textLength="139.87" x="1045.83" y="1232.3548">+setBookID(String bookID):void</text><text fill="#000000" font-family="sans-serif" font-size="9.94" lengthAdjust="spacing" textLength="76.68" x="1045.83" y="1245.5757">+toString():String</text><text fill="#000000" font-family="sans-serif" font-size="9.94" lengthAdjust="spacing" textLength="119.28" x="1045.83" y="1258.7967">+equals(Object o):boolean</text></g><!--class Driver--><g id="elem_Driver"><rect codeLine="103" fill="#F1F1F1" height="205.9527" id="Driver" rx="1.775" ry="1.775" style="stroke:#181818;stroke-width:0.355;" width="368.49" x="15.975" y="30.5397"/><ellipse cx="183.7125" cy="41.8997" fill="#ADD1B2" rx="7.81" ry="7.81" style="stroke:#181818;stroke-width:0.71;"/><path d="M185.6761,38.971 Q185.787,38.8156 185.9202,38.738 Q186.0533,38.6603 186.2086,38.6603 Q186.4748,38.6603 186.6412,38.8489 Q186.8077,39.0264 186.8077,39.4591 L186.8077,40.4908 Q186.8077,40.9235 186.6412,41.1121 Q186.4748,41.3006 186.2086,41.3006 Q185.9645,41.3006 185.8203,41.1564 Q185.6761,41.0233 185.5984,40.6572 Q185.5652,40.4021 185.432,40.2689 Q185.1991,40.0027 184.7664,39.8474 Q184.3337,39.6921 183.89,39.6921 Q183.3464,39.6921 182.8916,39.925 Q182.4478,40.158 182.0928,40.6905 Q181.7489,41.223 181.7489,41.9552 L181.7489,42.7317 Q181.7489,43.6081 182.3813,44.1961 Q183.0136,44.773 184.1452,44.773 Q184.8108,44.773 185.2767,44.5955 Q185.5541,44.4846 185.8536,44.1739 Q186.0422,43.9853 186.142,43.9299 Q186.253,43.8744 186.3972,43.8744 Q186.6302,43.8744 186.8077,44.063 Q186.9963,44.2405 186.9963,44.4846 Q186.9963,44.7286 186.7522,45.0171 Q186.3972,45.4275 185.8314,45.6605 Q185.0659,45.9822 184.1452,45.9822 Q183.0691,45.9822 182.2148,45.5385 Q181.5159,45.1835 181.0278,44.4291 Q180.5397,43.6636 180.5397,42.7539 L180.5397,41.933 Q180.5397,40.99 180.9723,40.1802 Q181.4161,39.3592 182.1927,38.9266 Q182.9692,38.4828 183.8456,38.4828 Q184.367,38.4828 184.8219,38.6049 Q185.2878,38.7158 185.6761,38.971 Z " fill="#000000"/><text fill="#000000" font-family="sans-serif" font-size="9.94" lengthAdjust="spacing" textLength="26.98" x="198.2675" y="46.0155">Driver</text><line style="stroke:#181818;stroke-width:0.355;" x1="16.685" x2="383.755" y1="53.2597" y2="53.2597"/><text fill="#000000" font-family="sans-serif" font-size="9.94" lengthAdjust="spacing" textLength="102.24" x="20.235" y="66.826">~loopProgram:boolean</text><line style="stroke:#181818;stroke-width:0.355;" x1="16.685" x2="383.755" y1="72.1607" y2="72.1607"/><text fill="#000000" font-family="sans-serif" font-size="9.94" lengthAdjust="spacing" text-decoration="underline" textLength="272.64" x="20.235" y="85.727">-allClientsToString(Client[] clientArrayInputScenarioNew):void</text><text fill="#000000" font-family="sans-serif" font-size="9.94" lengthAdjust="spacing" text-decoration="underline" textLength="123.54" x="20.235" y="98.9479">-displayOption1menu():void</text><text fill="#000000" font-family="sans-serif" font-size="9.94" lengthAdjust="spacing" text-decoration="underline" textLength="109.34" x="20.235" y="112.1689">-displayMainMenu():void</text><text fill="#000000" font-family="sans-serif" font-size="9.94" lengthAdjust="spacing" text-decoration="underline" textLength="116.44" x="20.235" y="125.3899">-hardCodeScenario():void</text><text fill="#000000" font-family="sans-serif" font-size="9.94" lengthAdjust="spacing" text-decoration="underline" textLength="201.64" x="20.235" y="138.6109">-getBiggestBook(Library[] libraryArray):String</text><text fill="#000000" font-family="sans-serif" font-size="9.94" lengthAdjust="spacing" text-decoration="underline" textLength="176.79" x="20.235" y="151.8318">-copyBooks(Media[] bookArray):Media[]</text><text fill="#000000" font-family="sans-serif" font-size="9.94" lengthAdjust="spacing" text-decoration="underline" textLength="310.98" x="20.235" y="165.0528">-displayAllMediaToString(Library[] libraryArrayInputScenarioNew):void</text><text fill="#000000" font-family="sans-serif" font-size="9.94" lengthAdjust="spacing" text-decoration="underline" textLength="306.72" x="20.235" y="178.2738">-displayAllBookToString(Library[] libraryArrayInputScenarioNew):void</text><text fill="#000000" font-family="sans-serif" font-size="9.94" lengthAdjust="spacing" text-decoration="underline" textLength="316.66" x="20.235" y="191.4948">-displayAllJournalToString(Library[] libraryArrayInputScenarioNew):void</text><text fill="#000000" font-family="sans-serif" font-size="9.94" lengthAdjust="spacing" text-decoration="underline" textLength="85.2" x="20.235" y="204.7157">-findFreeIndex():int</text><text fill="#000000" font-family="sans-serif" font-size="9.94" lengthAdjust="spacing" text-decoration="underline" textLength="359.97" x="20.235" y="217.9367">-deleteItem(Library[] libraryArrayInputScenarioNew,int indexOfItemToDelete):void</text><text fill="#000000" font-family="sans-serif" font-size="9.94" lengthAdjust="spacing" text-decoration="underline" textLength="321.63" x="20.235" y="231.1577">-deleteItemFromClient(Client[] clientArray, int indexOfItemToDelete):void</text></g><!--class Client--><g id="elem_Client"><rect codeLine="80" fill="#F1F1F1" height="258.8366" id="Client" rx="1.775" ry="1.775" style="stroke:#181818;stroke-width:0.355;" width="269.8" x="201.64" y="354.2997"/><ellipse cx="320.7425" cy="365.6597" fill="#ADD1B2" rx="7.81" ry="7.81" style="stroke:#181818;stroke-width:0.71;"/><path d="M322.7061,362.731 Q322.817,362.5756 322.9502,362.498 Q323.0833,362.4203 323.2386,362.4203 Q323.5048,362.4203 323.6713,362.6089 Q323.8377,362.7864 323.8377,363.2191 L323.8377,364.2508 Q323.8377,364.6835 323.6713,364.8721 Q323.5048,365.0606 323.2386,365.0606 Q322.9945,365.0606 322.8503,364.9164 Q322.7061,364.7833 322.6284,364.4172 Q322.5952,364.1621 322.462,364.0289 Q322.2291,363.7627 321.7964,363.6074 Q321.3638,363.4521 320.92,363.4521 Q320.3764,363.4521 319.9216,363.685 Q319.4778,363.918 319.1228,364.4505 Q318.7789,364.983 318.7789,365.7152 L318.7789,366.4917 Q318.7789,367.3681 319.4113,367.9561 Q320.0436,368.533 321.1752,368.533 Q321.8408,368.533 322.3067,368.3555 Q322.5841,368.2446 322.8836,367.9339 Q323.0722,367.7453 323.172,367.6899 Q323.283,367.6344 323.4272,367.6344 Q323.6602,367.6344 323.8377,367.823 Q324.0263,368.0005 324.0263,368.2446 Q324.0263,368.4886 323.7822,368.7771 Q323.4272,369.1875 322.8614,369.4205 Q322.0959,369.7422 321.1752,369.7422 Q320.0991,369.7422 319.2448,369.2985 Q318.5459,368.9435 318.0578,368.1891 Q317.5697,367.4236 317.5697,366.5139 L317.5697,365.693 Q317.5697,364.75 318.0023,363.9402 Q318.4461,363.1192 319.2227,362.6866 Q319.9992,362.2428 320.8756,362.2428 Q321.397,362.2428 321.8519,362.3649 Q322.3178,362.4758 322.7061,362.731 Z " fill="#000000"/><text fill="#000000" font-family="sans-serif" font-size="9.94" lengthAdjust="spacing" textLength="25.56" x="335.2975" y="369.7755">Client</text><line style="stroke:#181818;stroke-width:0.355;" x1="202.35" x2="470.73" y1="377.0197" y2="377.0197"/><text fill="#000000" font-family="sans-serif" font-size="9.94" lengthAdjust="spacing" textLength="67.45" x="205.9" y="390.586">-lease:Library[]</text><text fill="#000000" font-family="sans-serif" font-size="9.94" lengthAdjust="spacing" textLength="49.7" x="205.9" y="403.807">-clientID:int</text><text fill="#000000" font-family="sans-serif" font-size="9.94" lengthAdjust="spacing" textLength="88.75" x="205.9" y="417.0279">-phoneNumber:long</text><text fill="#000000" font-family="sans-serif" font-size="9.94" lengthAdjust="spacing" textLength="93.01" x="205.9" y="430.2489">-emailAddress:String</text><line style="stroke:#181818;stroke-width:0.355;" x1="202.35" x2="470.73" y1="435.5836" y2="435.5836"/><text fill="#000000" font-family="sans-serif" font-size="9.94" lengthAdjust="spacing" textLength="80.94" x="205.9" y="449.1499">+&#171;create&#187; Client()</text><text fill="#000000" font-family="sans-serif" font-size="9.94" lengthAdjust="spacing" textLength="136.32" x="205.9" y="462.3709">+&#171;create&#187; Client(Client object)</text><text fill="#000000" font-family="sans-serif" font-size="9.94" lengthAdjust="spacing" textLength="261.28" x="205.9" y="475.5918">+&#171;create&#187; Client(long phoneNumber, String emailAddress)</text><text fill="#000000" font-family="sans-serif" font-size="9.94" lengthAdjust="spacing" textLength="75.26" x="205.9" y="488.8128">+getClientID():int</text><text fill="#000000" font-family="sans-serif" font-size="9.94" lengthAdjust="spacing" textLength="112.89" x="205.9" y="502.0338">+getPhoneNumber():long</text><text fill="#000000" font-family="sans-serif" font-size="9.94" lengthAdjust="spacing" textLength="117.15" x="205.9" y="515.2548">+getEmailAddress():String</text><text fill="#000000" font-family="sans-serif" font-size="9.94" lengthAdjust="spacing" textLength="128.51" x="205.9" y="528.4757">+setClientID(int clientID):void</text><text fill="#000000" font-family="sans-serif" font-size="9.94" lengthAdjust="spacing" textLength="196.67" x="205.9" y="541.6967">+setPhoneNumber(long phoneNumber):void</text><text fill="#000000" font-family="sans-serif" font-size="9.94" lengthAdjust="spacing" textLength="198.09" x="205.9" y="554.9177">+setEmailAddress(String emailAddress):void</text><text fill="#000000" font-family="sans-serif" font-size="9.94" lengthAdjust="spacing" textLength="139.16" x="205.9" y="568.1387">+setLease(Library[] lease):void</text><text fill="#000000" font-family="sans-serif" font-size="9.94" lengthAdjust="spacing" textLength="94.43" x="205.9" y="581.3596">+getLease():Library[]</text><text fill="#000000" font-family="sans-serif" font-size="9.94" lengthAdjust="spacing" textLength="76.68" x="205.9" y="594.5806">+toString():String</text><text fill="#000000" font-family="sans-serif" font-size="9.94" lengthAdjust="spacing" textLength="119.28" x="205.9" y="607.8016">+equals(Object o):boolean</text></g><!--reverse link Library to Journal--><g id="link_Library_Journal"><path codeLine="6" d="M662.5827,1033.5649 C641.446,1048.4678 626.2058,1057.5689 603.145,1071.3358 " fill="none" id="Library-backto-Journal" style="stroke:#181818;stroke-width:0.71;"/><polygon fill="none" points="672.9877,1026.1443,660.1092,1030.0966,665.0563,1037.0332,672.9877,1026.1443" style="stroke:#181818;stroke-width:0.71;"/></g><!--reverse link Library to Media--><g id="link_Library_Media"><path codeLine="7" d="M831.41,1040.9194 C831.41,1055.5383 831.41,1057.363 831.41,1071.3003 " fill="none" id="Library-backto-Media" style="stroke:#181818;stroke-width:0.71;"/><polygon fill="none" points="831.41,1028.1394,827.15,1040.9194,835.67,1040.9194,831.41,1028.1394" style="stroke:#181818;stroke-width:0.71;"/></g><!--reverse link Library to Book--><g id="link_Library_Book"><path codeLine="8" d="M1000.3292,1001.6749 C1037.3344,1027.0006 1065.9443,1046.571 1102.0762,1071.2932 " fill="none" id="Library-backto-Book" style="stroke:#181818;stroke-width:0.71;"/><polygon fill="none" points="989.7826,994.457,997.9232,1005.1904,1002.7351,998.1594,989.7826,994.457" style="stroke:#181818;stroke-width:0.71;"/></g><!--reverse link Driver to Client--><g id="link_Driver_Client"><path codeLine="76" d="M241.7504,240.5141 C256.1279,277.3134 270.9857,315.3491 286.13,354.1293 " fill="none" id="Driver-backto-Client" style="stroke:#181818;stroke-width:0.71;stroke-dasharray:7.0,7.0;"/><polygon fill="#181818" points="240.2001,236.5462,239.8802,243.5316,241.492,239.8528,245.1708,241.4646,240.2001,236.5462" style="stroke:#181818;stroke-width:0.71;"/><text fill="#000000" font-family="sans-serif" font-size="9.23" lengthAdjust="spacing" textLength="41.18" x="263.41" y="291.8398">imports to</text></g><!--reverse link Client to library--><g id="link_Client_library"><path codeLine="78" d="M241.5354,617.2944 C226.2065,644.4519 214.5904,670.0722 205.9,699.3597 C194.359,738.2393 192.8023,783.7379 194.1974,819.9213 C194.2846,822.1827 194.3833,824.4078 194.4919,826.5926 C194.5055,826.8657 194.5192,827.1382 194.533,827.41 " fill="none" id="Client-backto-library" style="stroke:#181818;stroke-width:0.71;stroke-dasharray:7.0,7.0;"/><polygon fill="#181818" points="243.6294,613.5846,238.0152,617.7534,241.8844,616.6761,242.9616,620.5453,243.6294,613.5846" style="stroke:#181818;stroke-width:0.71;"/><text fill="#000000" font-family="sans-serif" font-size="9.23" lengthAdjust="spacing" textLength="41.18" x="227.2" y="668.8498">imports to</text></g><!--reverse link Driver to library--><g id="link_Driver_library"><path codeLine="102" d="M141.7133,240.5055 C136.3528,257.0059 134.19,270.2073 134.19,287.2047 C134.19,287.2047 134.19,287.2047 134.19,665.6347 C134.19,715.6791 150.1863,769.5219 166.432,811.301 C174.5548,832.1905 182.74,850.0641 189.0192,862.9389 C190.589,866.1576 192.0397,869.0639 193.3404,871.6268 C193.6656,872.2676 193.9815,872.8868 194.2874,873.4841 C194.3639,873.6335 194.4398,873.7814 194.5151,873.928 " fill="none" id="Driver-backto-library" style="stroke:#181818;stroke-width:0.71;stroke-dasharray:7.0,7.0;"/><polygon fill="#181818" points="143.0295,236.4539,138.3541,241.6538,141.9326,239.8302,143.7562,243.4087,143.0295,236.4539" style="stroke:#181818;stroke-width:0.71;"/><text fill="#000000" font-family="sans-serif" font-size="9.23" lengthAdjust="spacing" textLength="41.18" x="134.9" y="487.7998">imports to</text></g><!--SRC=[hLRRRjiu47tNLn1vgOr6Jlig10LSfmLSv0OaAB1Ox0CjCGuRYbGfAhjUR_hjoykG7ijiTsiKC2nfE7DcUCvmf5UFndHzTNRM2IhDq8fPhTgpMj2-BnjErvgsHV_4PKVj7V7skJ6QhmR3bhMIT_nlHjuKHKVh9xfcHF2LfdgpBOhBS7V-Jrb-KeEML63J5RFesF1UgQTYuV39PSHuVNvUQqODU_Sk6YVJh1MkHAs-iDhaVUvisN9D96tPAU7Ia0sZ-kRXTbW9NbF3bJmbu4C7ywXqFotARM_iKlr226-ODFm1NA-7TiLqPM6ARuT0O7UfgW1fdm0q6bwJDJFB3EXawiFz-czZPBnuRU7jCyQRXnpOskTGijkVLi-ADo74OoF6qbejb6GLS1fyOz8HUGWjkqrNGuxK56XKGCIxOLy7Alh9ZTUPg6crKaemAktI8FdNWVs0qQ9uWGw3XjmM9NbMOcWPahCaNyBgyYAbHTq4eQC-Z5QuPlim-lny7mOtNEaqoFqPcN1dV8ex63N2dly19X9i1m2L94wELIVqJPm4KGXtwhTnbLJ-sIeWVK6M4pjIUb35GZtb9N518psyoVrbbV2hnygmLnleS8rjM8ZtlkYH2llUXvX81uY7EW85noaG6VU35rCU9d59xZTT6bObQPqrJxSF6F4TRFu_otXOFuPoU7RL0TdkTZJshaAr8vwz8uv7nCO8M8Rj7akj_JMQFpCzk_0NSZwRpMh1xIYQBVobEk5jfxJfBVH9Ubi6bssnv-g3INoJLYVsrOD2GSO5H9R4bj2dWVpx7zOIqAnuuU1qZrPe671MSwSkQoaNywRHhEzp4WVqaSPWX29pAeE7IuAp9X5nMX1p0RNYGtEx2xLcNxAtVq3X8waJZEkgk7-iDyOSruVzzdBaoaQ-buxvIM8-A94Srj5XYiJvoSwoVVMIcYLqsBOWXwsMceNijLbebGk8GzyoL8Z0M7yVomdFTXU1lRdMTBEKtM3kQYQfvkgQ_GbxGq0Dx-s7u-QcSuVtRSlaCFckqnNbyYhhyKXrir0DYwcI1qakRfRojPsEVYHYqiEThtUwcryfi5RTneNqOJhP23T5mHrCg1IeTIw4Nqlqv1F-9q4xE5V3hqE3z-XnWD-8KAgxrSfztQTUGu8zSDbyr8mjPSF-WfE9A6sOOFRhtx3sV-OzzPzw3kpcmONTgmiFSIZp3lgZLktUnDblpV3- -3wcFJZ_0W00]--></g></svg>